<svg xmlns="http://www.w3.org/2000/svg" viewBox="0 0 38 24" width="38" height="24">
  <rect width="38" height="24" rx="3" fill="#FFFFFF" stroke="#E5E7EB" stroke-width="1"/>
  <rect x="3" y="3" width="32" height="18" rx="2" fill="#000000" />
  <path d="M10 9v6M10 10.5c0.8-1.2 2-1.2 2.8 0v4.5M13.5 10.5c0.8-1.2 2-1.2 2.8 0v4.5" stroke="#00FF87" stroke-width="1.5" fill="none" stroke-linecap="round"/>
  <path d="M22.5 12c-0.8-1-2.2-1-2.2 0s1.4 1 2.2 0zM19 12c0-1.8 1.5-2.2 2.5-1.5s2 2.5 1.5 3.5-2.5 1.2-3.5-0.5c-0.3-0.5-0.5-1-0.5-1.5z" fill="none" stroke="#00E676" stroke-width="1.2" stroke-linecap="round"/>
</svg>
