<svg xmlns="http://www.w3.org/2000/svg" viewBox="0 0 38 24" width="38" height="24">
  <rect width="38" height="24" rx="3" fill="#FFFFFF" stroke="#E5E7EB" stroke-width="1"/>
  <path d="M6 8.5l1.6 4.8h1.2l2-4.8H9.6L8.8 11.5 8 8.5H6zm6.8 0v4.8h1.2V8.5h-1.2zm6 1.7c0-1-1.3-1-1.3-1.4 0-0.2 0.2-0.2 0.4-0.2 0.4 0 0.8 0.1 1 0.2l0.3-0.9c-0.3-0.1-0.7-0.2-1.2-0.2-1.1 0-1.8 0.5-1.8 1.4 0 1 1.4 1 1.4 1.5 0 0.2-0.2 0.3-0.5 0.3-0.5 0-0.8-0.1-1.1-0.3l-0.3 0.9c0.3 0.2 0.8 0.4 1.3 0.4 1.2 0 1.8-0.5 1.8-1.4zm2.5-1.7l-1.4 4.8h1.1l1.4-4.8h-1.1z" fill="#1A1F71"/>
  <path d="M5 8.5l1.2 3.5 0.4-2L6.2 8.5H5z" fill="#F79E1B"/>
</svg>
