<?xml version="1.0" encoding="UTF-8"?>
<svg id="Layer_1" data-name="Layer 1" xmlns="http://www.w3.org/2000/svg" xmlns:xlink="http://www.w3.org/1999/xlink" viewBox="0 0 180 180">
  <defs>
    <style>
      .cls-1 {
        fill: url(#linear-gradient);
      }

      .cls-2 {
        fill: url(#linear-gradient-2);
      }
    </style>
    <linearGradient id="linear-gradient" x1="74.43" y1=".91" x2="74.43" y2="177.82" gradientUnits="userSpaceOnUse">
      <stop offset="0" stop-color="#00ade5"/>
      <stop offset="1" stop-color="#29e0e2"/>
    </linearGradient>
    <linearGradient id="linear-gradient-2" x1="105.24" y1=".91" x2="105.24" y2="177.82" gradientUnits="userSpaceOnUse">
      <stop offset="0" stop-color="#1365b8"/>
      <stop offset="1" stop-color="#52c4fb"/>
    </linearGradient>
  </defs>
  <g id="UCHyQ6.tif">
    <path class="cls-1" d="M127.29,.03c-.59,.73-1.17,1.47-1.78,2.19-14.56,17.44-29.12,34.88-43.68,52.32-9.68,11.59-19.35,23.18-29.03,34.76-.18,.21-.35,.43-.56,.68,25.03,29.97,50.04,59.93,75.12,89.96-.25,.02-.41,.04-.58,.04-9.89,0-19.79,0-29.68,0-.33,0-.56-.09-.78-.36-11.59-13.9-23.19-27.78-34.78-41.67-10.4-12.45-20.8-24.91-31.2-37.36-2.74-3.28-5.47-6.56-8.21-9.84-.19-.22-.4-.42-.6-.63,0-.08,0-.15,0-.23,1.62-1.92,3.24-3.84,4.85-5.77,10.07-12.05,20.13-24.1,30.2-36.15,12-14.37,23.99-28.73,35.99-43.1,1.34-1.6,2.66-3.22,3.99-4.83,10.25,0,20.51,0,30.76,0Z"/>
  </g>
  <g id="UCHyQ6.tif-2" data-name="UCHyQ6.tif">
    <path class="cls-2" d="M158.1,.03c-.59,.73-1.17,1.47-1.78,2.19-14.56,17.44-29.12,34.88-43.68,52.32-9.68,11.59-19.35,23.18-29.03,34.76-.18,.21-.35,.43-.56,.68,25.03,29.97,50.04,59.93,75.12,89.96-.25,.02-.41,.04-.58,.04-9.89,0-19.79,0-29.68,0-.33,0-.56-.09-.78-.36-11.59-13.9-23.19-27.78-34.78-41.67-10.4-12.45-20.8-24.91-31.2-37.36-2.74-3.28-5.47-6.56-8.21-9.84-.19-.22-.4-.42-.6-.63,0-.08,0-.15,0-.23,1.62-1.92,3.24-3.84,4.85-5.77,10.07-12.05,20.13-24.1,30.2-36.15,12-14.37,23.99-28.73,35.99-43.1,1.34-1.6,2.66-3.22,3.99-4.83,10.25,0,20.51,0,30.76,0Z"/>
  </g>
</svg>