<?xml version="1.0" encoding="UTF-8"?>
<svg id="Layer_1" data-name="Layer 1" xmlns="http://www.w3.org/2000/svg" xmlns:xlink="http://www.w3.org/1999/xlink" viewBox="0 0 200 45.39">
  <defs>
    <style>
      .cls-1 {
        fill: url(#linear-gradient);
      }

      .cls-2 {
        font-family: HelveticaNeue-Medium, 'Helvetica Neue';
        font-size: 36.83px;
        font-weight: 500;
      }
    </style>
    <linearGradient id="linear-gradient" x1="34.08" y1="31.89" x2="-.35" y2="2.25" gradientUnits="userSpaceOnUse">
      <stop offset="0" stop-color="#25dbe2"/>
      <stop offset="1" stop-color="#02b1e5"/>
    </linearGradient>
  </defs>
  <path fill="#000000" d="M45.004 18.934 L52.518 18.934 Q54.175 18.934 55.28 17.995 Q56.385 17.055 56.385 15.287 Q56.385 13.298 55.391 12.488 Q54.396 11.678 52.518 11.678 L45.004 11.678 Z M40.399 7.921 L53.181 7.921 Q56.717 7.921 58.853 9.541 Q60.99 11.162 60.99 14.44 Q60.99 16.429 60.013 17.847 Q59.037 19.265 57.233 20.039 L57.233 20.113 Q59.664 20.628 60.916 22.415 Q62.168 24.201 62.168 26.89 Q62.168 28.437 61.616 29.782 Q61.063 31.126 59.885 32.102 Q58.706 33.078 56.864 33.649 Q55.022 34.22 52.481 34.22 L40.399 34.22 Z M45.004 30.463 L53.144 30.463 Q55.243 30.463 56.404 29.376 Q57.564 28.29 57.564 26.301 Q57.564 24.348 56.404 23.299 Q55.243 22.249 53.144 22.249 L45.004 22.249 Z M65.741 15.177 L69.682 15.177 L69.682 18.86 L69.756 18.86 Q69.94 18.087 70.474 17.35 Q71.008 16.613 71.764 16.006 Q72.519 15.398 73.439 15.029 Q74.36 14.661 75.318 14.661 Q76.055 14.661 76.331 14.698 Q76.607 14.735 76.902 14.772 L76.902 18.823 Q76.46 18.75 75.999 18.694 Q75.539 18.639 75.097 18.639 Q74.029 18.639 73.09 19.063 Q72.15 19.486 71.45 20.315 Q70.751 21.144 70.345 22.359 Q69.94 23.575 69.94 25.159 L69.94 34.22 L65.741 34.22 Z M78.817 7.921 L83.016 7.921 L83.016 11.899 L78.817 11.899 Z M78.817 15.177 L83.016 15.177 L83.016 34.22 L78.817 34.22 Z M105.19 33.225 Q105.19 37.535 102.778 39.653 Q100.365 41.771 95.835 41.771 Q94.398 41.771 92.943 41.476 Q91.488 41.182 90.291 40.482 Q89.094 39.782 88.284 38.64 Q87.473 37.498 87.326 35.841 L91.525 35.841 Q91.709 36.725 92.151 37.277 Q92.593 37.83 93.201 38.143 Q93.809 38.456 94.545 38.548 Q95.282 38.64 96.092 38.64 Q98.634 38.64 99.813 37.388 Q100.991 36.135 100.991 33.778 L100.991 30.868 L100.918 30.868 Q100.034 32.452 98.505 33.336 Q96.976 34.22 95.208 34.22 Q92.925 34.22 91.322 33.428 Q89.72 32.636 88.67 31.255 Q87.621 29.874 87.142 28.069 Q86.663 26.264 86.663 24.201 Q86.663 22.286 87.252 20.555 Q87.842 18.823 88.947 17.516 Q90.052 16.208 91.654 15.435 Q93.256 14.661 95.282 14.661 Q97.087 14.661 98.597 15.416 Q100.107 16.171 100.918 17.792 L100.991 17.792 L100.991 15.177 L105.19 15.177 Z M95.871 30.905 Q97.271 30.905 98.247 30.334 Q99.223 29.763 99.831 28.824 Q100.439 27.885 100.715 26.687 Q100.991 25.49 100.991 24.275 Q100.991 23.059 100.697 21.917 Q100.402 20.776 99.794 19.892 Q99.186 19.008 98.21 18.492 Q97.234 17.976 95.871 17.976 Q94.472 17.976 93.514 18.566 Q92.556 19.155 91.967 20.094 Q91.378 21.033 91.12 22.231 Q90.862 23.428 90.862 24.606 Q90.862 25.785 91.157 26.908 Q91.451 28.032 92.059 28.916 Q92.667 29.8 93.606 30.352 Q94.545 30.905 95.871 30.905 Z M109.426 7.921 L113.625 7.921 L113.625 17.682 L113.699 17.682 Q114.473 16.392 116.001 15.527 Q117.53 14.661 119.408 14.661 Q122.539 14.661 124.344 16.282 Q126.149 17.903 126.149 21.144 L126.149 34.22 L121.95 34.22 L121.95 22.249 Q121.876 20.002 120.992 18.989 Q120.108 17.976 118.23 17.976 Q117.161 17.976 116.314 18.363 Q115.467 18.75 114.878 19.431 Q114.288 20.113 113.957 21.033 Q113.625 21.954 113.625 22.986 L113.625 34.22 L109.426 34.22 Z M128.654 15.177 L131.821 15.177 L131.821 9.468 L136.02 9.468 L136.02 15.177 L139.814 15.177 L139.814 18.308 L136.02 18.308 L136.02 28.474 Q136.02 29.137 136.076 29.616 Q136.131 30.095 136.334 30.426 Q136.536 30.758 136.941 30.923 Q137.346 31.089 138.046 31.089 Q138.488 31.089 138.93 31.071 Q139.372 31.052 139.814 30.942 L139.814 34.183 Q139.115 34.257 138.451 34.331 Q137.788 34.404 137.089 34.404 Q135.431 34.404 134.418 34.091 Q133.405 33.778 132.834 33.17 Q132.263 32.562 132.061 31.642 Q131.858 30.721 131.821 29.542 L131.821 18.308 L128.654 18.308 Z M142.945 7.921 L147.144 7.921 L147.144 22.875 L154.732 15.177 L159.889 15.177 L152.596 22.175 L160.589 34.22 L155.469 34.22 L149.649 24.975 L147.144 27.406 L147.144 34.22 L142.945 34.22 Z M175.691 23.022 Q175.617 22.028 175.267 21.107 Q174.917 20.186 174.309 19.505 Q173.702 18.823 172.836 18.4 Q171.97 17.976 170.902 17.976 Q169.797 17.976 168.895 18.363 Q167.992 18.75 167.348 19.431 Q166.703 20.113 166.316 21.033 Q165.93 21.954 165.893 23.022 Z M165.893 25.785 Q165.893 26.89 166.206 27.921 Q166.519 28.953 167.145 29.726 Q167.771 30.5 168.729 30.96 Q169.687 31.421 171.013 31.421 Q172.854 31.421 173.978 30.629 Q175.101 29.837 175.654 28.253 L179.632 28.253 Q179.3 29.8 178.49 31.015 Q177.68 32.231 176.538 33.06 Q175.396 33.888 173.978 34.312 Q172.56 34.736 171.013 34.736 Q168.766 34.736 167.035 33.999 Q165.303 33.262 164.106 31.936 Q162.909 30.61 162.302 28.769 Q161.694 26.927 161.694 24.717 Q161.694 22.691 162.338 20.868 Q162.983 19.044 164.18 17.663 Q165.377 16.282 167.072 15.471 Q168.766 14.661 170.902 14.661 Q173.149 14.661 174.936 15.6 Q176.722 16.54 177.901 18.087 Q179.079 19.634 179.613 21.641 Q180.148 23.649 179.89 25.785 Z M180.995 15.177 L185.599 15.177 L190.572 29.395 L190.645 29.395 L195.471 15.177 L199.854 15.177 L192.45 35.251 Q191.934 36.541 191.437 37.719 Q190.94 38.898 190.222 39.8 Q189.503 40.703 188.435 41.237 Q187.367 41.771 185.71 41.771 Q184.236 41.771 182.8 41.55 L182.8 38.014 Q183.315 38.088 183.794 38.18 Q184.273 38.272 184.789 38.272 Q185.525 38.272 186.004 38.088 Q186.483 37.903 186.796 37.553 Q187.109 37.204 187.33 36.725 Q187.551 36.246 187.735 35.62 L188.214 34.146 Z"/>
  <polygon class="cls-1" points="29.47 40 13.64 40 -1 21.11 13.64 2.22 29.47 2.22 14.83 21.11 29.47 40"/>
</svg>
