<?xml version="1.0" encoding="UTF-8"?>
<svg id="Layer_1" data-name="Layer 1" xmlns="http://www.w3.org/2000/svg" xmlns:xlink="http://www.w3.org/1999/xlink" viewBox="0 0 200 45.39">
  <defs>
    <style>
      .cls-1 {
        fill: url(#linear-gradient);
      }

      .cls-2 {
        fill: url(#linear-gradient-2);
      }

      .cls-3 {
        letter-spacing: 0em;
      }

      .cls-4 {
        font-family: Commissioner-Regular, Commissioner;
        font-size: 1.99px;
      }

      .cls-5 {
        letter-spacing: -.04em;
      }
    </style>
    <linearGradient id="linear-gradient" x1="139.78" y1="8.96" x2="139.78" y2="34.89" gradientUnits="userSpaceOnUse">
      <stop offset="0" stop-color="#00ade5"/>
      <stop offset="1" stop-color="#29e0e2"/>
    </linearGradient>
    <linearGradient id="linear-gradient-2" x1="144.3" y1="8.96" x2="144.3" y2="34.89" gradientUnits="userSpaceOnUse">
      <stop offset="0" stop-color="#1365b8"/>
      <stop offset="1" stop-color="#52c4fb"/>
    </linearGradient>
  </defs>
  <g>
    <g>
      <path d="M7.28,35.23H-.14V8.8H8.84c1.32,0,2.47,.14,3.45,.43,.98,.28,1.79,.7,2.44,1.24,.65,.54,1.13,1.21,1.46,1.99,.32,.78,.48,1.68,.48,2.68,0,1.12-.19,2.11-.58,2.96-.39,.85-.92,1.56-1.6,2.13-.68,.57-1.45,1.02-2.3,1.33v.22c.79,.14,1.59,.43,2.4,.88,.81,.45,1.49,1.12,2.04,1.99,.55,.88,.82,2.02,.82,3.43,0,.98-.17,1.9-.52,2.76-.35,.87-.91,1.63-1.7,2.29-.78,.66-1.83,1.18-3.12,1.55s-2.9,.56-4.82,.56Zm-6.23-1.15H7.32c2.18,0,3.91-.25,5.22-.74,1.3-.49,2.24-1.19,2.82-2.09,.57-.9,.86-1.96,.86-3.18,0-2.1-.73-3.58-2.18-4.45-1.45-.86-3.46-1.3-6.02-1.3H.83v-1.11h7.38c1.73,0,3.13-.29,4.19-.87,1.06-.58,1.84-1.33,2.32-2.26,.48-.93,.72-1.91,.72-2.95,0-1.85-.57-3.18-1.7-3.99-1.13-.8-2.79-1.2-4.98-1.2H1.05v24.14Z"/>
      <path d="M23.7,35.23V8.8h8.01c1.9,0,3.47,.24,4.69,.71,1.22,.48,2.13,1.21,2.73,2.22,.59,1,.89,2.29,.89,3.86,0,1.37-.27,2.64-.8,3.8-.53,1.16-1.45,2.09-2.75,2.8-1.3,.7-3.11,1.06-5.42,1.08l.07-.67,4.62,5.15c.72,.79,1.48,1.64,2.28,2.54,.8,.9,1.59,1.78,2.35,2.64,.77,.86,1.45,1.63,2.06,2.31h-1.56c-1.05-1.17-2.07-2.31-3.05-3.41-.98-1.1-1.96-2.19-2.92-3.26l-5.01-5.6,.82,.37h-6.01v-1.11h5.49c1.99,0,3.62-.23,4.88-.68,1.27-.45,2.2-1.16,2.81-2.14,.61-.98,.91-2.25,.91-3.82,0-1.4-.23-2.48-.69-3.25-.46-.77-1.05-1.33-1.77-1.66-.72-.33-1.5-.54-2.33-.61-.83-.07-1.62-.11-2.37-.11h-7.34l.59-1.04v26.32h-1.19Z"/>
      <path d="M48.28,35.23V8.8h1.19v26.43h-1.19Z"/>
      <path d="M70.08,35.56c-2.31,0-4.33-.35-6.07-1.05-1.74-.7-3.19-1.67-4.36-2.91-1.17-1.24-2.05-2.69-2.63-4.35-.59-1.66-.88-3.44-.88-5.34,0-2.63,.54-4.97,1.63-7.02,1.09-2.05,2.6-3.65,4.54-4.81,1.94-1.16,4.18-1.74,6.73-1.74,.93,0,1.82,.07,2.69,.2,.86,.14,1.68,.32,2.44,.55,.76,.23,1.45,.47,2.08,.72,.62,.25,1.15,.5,1.58,.75l-.19,1.3c-1-.54-1.98-.99-2.95-1.33-.96-.34-1.92-.59-2.85-.74-.94-.15-1.87-.23-2.8-.23-1.74,0-3.33,.29-4.75,.86-1.43,.57-2.66,1.4-3.7,2.48-1.04,1.08-1.84,2.38-2.39,3.9-.56,1.52-.83,3.22-.83,5.1,0,1.76,.25,3.38,.74,4.88,.49,1.5,1.26,2.82,2.29,3.95,1.03,1.13,2.35,2.01,3.96,2.64,1.61,.63,3.52,.95,5.73,.95,.64,0,1.31-.03,2-.1,.69-.07,1.39-.18,2.09-.32,.7-.15,1.39-.34,2.07-.57,.67-.23,1.31-.52,1.92-.85l.15,1.37c-.43,.2-.95,.4-1.55,.6-.6,.2-1.26,.39-1.97,.56-.72,.17-1.47,.3-2.26,.4-.79,.1-1.61,.15-2.45,.15Zm7.04-1.71v-11.57h1.19v11.57h-1.19Z"/>
      <path d="M85.66,35.23V8.8h1.19v26.43h-1.19Zm.41-12.87v-1.15h18.91v1.15h-18.91Zm18.02,12.87V8.8h1.19v26.43h-1.19Z"/>
      <path d="M120.95,35.23V8.91l.56,1.04h-10.49v-1.15h21.02v1.15h-10.49l.59-1.04v26.32h-1.19Z"/>
      <path d="M155.35,35.23V8.8h15.53v1.15h-14.94l.59-1.04v26.18l-.59-1h14.9v1.15h-15.5Zm.96-12.87v-1.15h13.72v1.15h-13.72Z"/>
      <path d="M184.68,24.11l-6.01-9.29c-.63-.98-1.24-1.92-1.84-2.85-.59-.92-1.28-1.98-2.06-3.18h1.41c.85,1.32,1.58,2.45,2.19,3.39,.61,.94,1.18,1.83,1.72,2.67,.54,.84,1.14,1.77,1.8,2.8l3.23,5.01h.22l3.11-4.82c.69-1.08,1.32-2.05,1.89-2.93,.57-.88,1.16-1.79,1.78-2.74,.62-.95,1.35-2.08,2.19-3.37h1.41c-.67,1.03-1.33,2.04-1.97,3.04-.65,1-1.29,1.99-1.92,2.97l-6.04,9.31h-1.11Zm-.04,11.12v-12.09h1.19v12.09h-1.19Z"/>
    </g>
    <text class="cls-4" transform="translate(196.81 10.27)"><tspan class="cls-5" x="0" y="0">T</tspan><tspan class="cls-3" x="1.2" y="0">M</tspan></text>
  </g>
  <g>
    <g id="UCHyQ6.tif">
      <path class="cls-1" d="M147.53,8.83c-.09,.11-.17,.22-.26,.32-2.13,2.56-4.27,5.11-6.4,7.67-1.42,1.7-2.84,3.4-4.25,5.09-.03,.03-.05,.06-.08,.1,3.67,4.39,7.33,8.78,11.01,13.18-.04,0-.06,0-.09,0-1.45,0-2.9,0-4.35,0-.05,0-.08-.01-.11-.05-1.7-2.04-3.4-4.07-5.1-6.11-1.52-1.83-3.05-3.65-4.57-5.48-.4-.48-.8-.96-1.2-1.44-.03-.03-.06-.06-.09-.09,0-.01,0-.02,0-.03,.24-.28,.47-.56,.71-.85,1.48-1.77,2.95-3.53,4.43-5.3,1.76-2.11,3.52-4.21,5.27-6.32,.2-.23,.39-.47,.58-.71,1.5,0,3.01,0,4.51,0Z"/>
    </g>
    <g id="UCHyQ6.tif-2" data-name="UCHyQ6.tif">
      <path class="cls-2" d="M152.05,8.83c-.09,.11-.17,.22-.26,.32-2.13,2.56-4.27,5.11-6.4,7.67-1.42,1.7-2.84,3.4-4.25,5.09-.03,.03-.05,.06-.08,.1,3.67,4.39,7.33,8.78,11.01,13.18-.04,0-.06,0-.09,0-1.45,0-2.9,0-4.35,0-.05,0-.08-.01-.11-.05-1.7-2.04-3.4-4.07-5.1-6.11-1.52-1.83-3.05-3.65-4.57-5.48-.4-.48-.8-.96-1.2-1.44-.03-.03-.06-.06-.09-.09,0-.01,0-.02,0-.03,.24-.28,.47-.56,.71-.85,1.48-1.77,2.95-3.53,4.43-5.3,1.76-2.11,3.52-4.21,5.27-6.32,.2-.23,.39-.47,.58-.71,1.5,0,3.01,0,4.51,0Z"/>
    </g>
  </g>
</svg>